<?xml version="1.0" encoding="iso-8859-1"?>
<!-- Generator: Adobe Illustrator 19.0.0, SVG Export Plug-In . SVG Version: 6.00 Build 0)  -->
<svg version="1.1" id="Layer_1" xmlns="http://www.w3.org/2000/svg" xmlns:xlink="http://www.w3.org/1999/xlink" x="0px" y="0px"
	viewBox="0 0 511.66 511.66" style="enable-background:new 0 0 511.66 511.66;" xml:space="preserve">
<g>
	<g>
		<path style="fill:#95A5A5;" d="M246.509,182.606c-4.37,0-8.229-3.136-8.997-7.589C230.509,134.625,209.489,71,183.103,72.874
			c-5.01,0.366-9.381-3.502-9.71-8.539c-0.32-5.038,3.502-9.381,8.539-9.71c51.118-3.419,71.461,104.933,73.591,117.285
			c0.859,4.974-2.478,9.701-7.451,10.56C247.551,182.561,247.021,182.606,246.509,182.606"/>
		<path style="fill:#95A5A5;" d="M264.812,182.606c-0.512,0-1.033-0.037-1.563-0.137c-4.974-0.85-8.32-5.586-7.451-10.56
			c2.13-12.352,22.409-120.585,73.591-117.285c5.038,0.329,8.859,4.672,8.539,9.71c-0.329,5.038-4.626,8.905-9.71,8.539
			c-27.237-1.801-48.521,68.059-54.409,102.144C273.04,179.47,269.182,182.606,264.812,182.606"/>
	</g>
	<path style="fill:#955BA5;" d="M29.866,19.156c136.969,15.653,198.537,181.678,198.537,181.678v73.143H72.975
		c-59.054,0-54.857-54.857-54.857-54.857v-128C0.426,73.428-1.521,54.63,0.783,40.523C3.023,26.772,16.024,17.574,29.866,19.156"/>
	<path style="fill:#894B9D;" d="M228.401,273.973l-128,27.429c0,0-62.098,18.67,0,82.286L82.116,456.83
		c0,0-5.641,24.219,18.542,33.317c14.665,5.504,31.104,1.701,43.319-8.11c14.464-11.602,35.538-32.229,49.856-62.418
		c6.199-13.065,34.569-81.646,34.569-81.646V273.973z"/>
	<path style="fill:#955BA5;" d="M481.794,19.156C344.825,34.809,283.257,200.834,283.257,200.834v73.143h155.429
		c59.054,0,54.857-54.857,54.857-54.857v-128c17.691-17.691,19.639-36.489,17.335-50.597
		C508.637,26.772,495.636,17.574,481.794,19.156"/>
	<path style="fill:#894B9D;" d="M283.259,273.973l128,27.429c0,0,62.098,18.67,0,82.286l18.286,73.143
		c0,0,5.641,24.219-18.542,33.317c-14.665,5.504-31.104,1.701-43.319-8.11c-14.464-11.602-35.538-32.229-49.856-62.418
		c-6.199-13.065-34.569-81.646-34.569-81.646V273.973z"/>
	<g>
		<path style="fill:#713E84;" d="M292.231,273.973c0,60.59-16.375,109.714-36.571,109.714s-36.571-49.125-36.571-109.714
			s16.375-109.714,36.571-109.714S292.231,213.383,292.231,273.973"/>
		<path style="fill:#713E84;" d="M146.286,182.544c0,20.197-16.375,36.571-36.571,36.571s-36.571-16.375-36.571-36.571
			s16.375-36.571,36.571-36.571S146.286,162.348,146.286,182.544"/>
		<path style="fill:#713E84;" d="M438.687,182.544c0,20.197-16.375,36.571-36.571,36.571s-36.571-16.375-36.571-36.571
			s16.375-36.571,36.571-36.571S438.687,162.348,438.687,182.544"/>
		<path style="fill:#713E84;" d="M146.294,411.111c-0.174,0-0.338,0-0.512-0.018c-5.029-0.274-8.896-4.562-8.631-9.609
			c0.11-1.975,2.926-48.667,32.677-62.647c4.571-2.149,10.011-0.183,12.16,4.389c2.149,4.571,0.183,10.021-4.389,12.169
			c-16.466,7.726-21.595,36.608-22.181,47.077C155.144,407.335,151.112,411.111,146.294,411.111"/>
		<path style="fill:#713E84;" d="M365.535,411.111c-4.818,0-8.85-3.776-9.125-8.64c-0.585-10.469-5.714-39.351-22.181-47.077
			c-4.571-2.149-6.537-7.598-4.389-12.169c2.149-4.571,7.579-6.546,12.16-4.389c29.751,13.979,32.567,60.672,32.677,62.647
			c0.265,5.047-3.602,9.335-8.631,9.609C365.873,411.102,365.709,411.111,365.535,411.111"/>
	</g>
</g>
<g>
</g>
<g>
</g>
<g>
</g>
<g>
</g>
<g>
</g>
<g>
</g>
<g>
</g>
<g>
</g>
<g>
</g>
<g>
</g>
<g>
</g>
<g>
</g>
<g>
</g>
<g>
</g>
<g>
</g>
</svg>
